<svg xmlns="http://www.w3.org/2000/svg" width="1417" height="1417" viewBox="0 0 1417 1417" role="img" aria-labelledby="title desc">
  <title id="title">Webey tanıtım posteri</title>
  <desc id="desc">Webey renkleriyle hazırlanmış kuaför randevu tanıtım posteri</desc>
  <defs>
    <linearGradient id="bg" x1="0" y1="0" x2="1" y2="1">
      <stop offset="0%" stop-color="#f8f5ee"/>
      <stop offset="55%" stop-color="#f3efe6"/>
      <stop offset="100%" stop-color="#ece6da"/>
    </linearGradient>
    <linearGradient id="hero" x1="0" y1="0" x2="1" y2="1">
      <stop offset="0%" stop-color="#1db6c1"/>
      <stop offset="100%" stop-color="#0a7d8d"/>
    </linearGradient>
    <linearGradient id="darkCard" x1="0" y1="0" x2="1" y2="1">
      <stop offset="0%" stop-color="#0b2530"/>
      <stop offset="100%" stop-color="#123949"/>
    </linearGradient>
    <filter id="softShadow" x="-20%" y="-20%" width="140%" height="140%">
      <feDropShadow dx="0" dy="26" stdDeviation="30" flood-color="#10202a" flood-opacity=".16"/>
    </filter>
    <filter id="cardShadow" x="-20%" y="-20%" width="140%" height="140%">
      <feDropShadow dx="0" dy="18" stdDeviation="22" flood-color="#0c1820" flood-opacity=".14"/>
    </filter>
  </defs>

  <rect width="1417" height="1417" fill="url(#bg)"/>

  <circle cx="162" cy="220" r="154" fill="#dff5f6"/>
  <circle cx="1280" cy="212" r="128" fill="#d9f0f1"/>
  <circle cx="1236" cy="1208" r="216" fill="#e6f7f8"/>
  <path d="M0 1084C233 966 390 1004 573 1082c162 69 352 83 562 15 95-30 180-79 282-130v366H0z" fill="#f1ebe0"/>

  <g opacity=".8">
    <path d="M111 382c74-102 183-165 317-153 78 7 151 34 231 39 143 10 285-49 428-5 71 22 134 68 200 101 39 19 79 33 121 40v91c-58 4-113-7-166-28-76-29-144-77-220-106-97-37-193-14-293 4-100 18-205 31-301 0-72-23-136-67-207-89-39-12-79-17-110-15z" fill="#ffffff" opacity=".55"/>
  </g>

  <g transform="translate(120 104)">
    <text x="0" y="0" font-family="Georgia, 'Times New Roman', serif" font-style="italic" font-size="86" font-weight="700" fill="#129daf">Webey</text>
  </g>

  <g transform="translate(114 205)" filter="url(#softShadow)">
    <rect width="1189" height="1000" rx="46" fill="#fffdf8" opacity=".95"/>
  </g>

  <g transform="translate(170 262)">
    <text x="0" y="0" font-family="'Arial Black', Arial, sans-serif" font-size="76" font-weight="900" letter-spacing="1.5" fill="#121826">
      BU KUAFORDE
    </text>
    <text x="0" y="126" font-family="'Arial Black', Arial, sans-serif" font-size="110" font-weight="900" letter-spacing="1.5" fill="#121826">
      RANDEVULARINIZI
    </text>
    <text x="0" y="204" font-family="'Arial Black', Arial, sans-serif" font-size="70" font-weight="900" fill="#1c2d38">
      ARTIK
    </text>
  </g>

  <g transform="translate(176 546)" filter="url(#cardShadow)">
    <rect width="612" height="410" rx="38" fill="url(#darkCard)"/>
    <rect x="38" y="38" width="536" height="334" rx="28" fill="#f8fafb" opacity=".08" stroke="#6fe0e3" stroke-opacity=".28"/>

    <text x="56" y="95" font-family="'Arial Black', Arial, sans-serif" font-size="42" font-weight="900" fill="#8de5e8" letter-spacing="2">
      WEBEY.COM.TR
    </text>

    <text x="56" y="170" font-family="Arial, sans-serif" font-size="58" font-weight="800" fill="#ffffff">
      UZERINDEN
    </text>
    <text x="56" y="242" font-family="Arial, sans-serif" font-size="58" font-weight="800" fill="#ffffff">
      ALABILIRSINIZ
    </text>

    <text x="56" y="308" font-family="Arial, sans-serif" font-size="27" font-weight="600" fill="#b8d7dd">
      Hızlı rezervasyon, kolay saat secimi
    </text>
    <text x="56" y="346" font-family="Arial, sans-serif" font-size="27" font-weight="600" fill="#b8d7dd">
      ve modern kuafor deneyimi.
    </text>
  </g>

  <g transform="translate(842 474)" filter="url(#cardShadow)">
    <rect width="408" height="546" rx="42" fill="url(#hero)"/>
    <rect x="32" y="28" width="344" height="490" rx="34" fill="#fcfffe"/>
    <rect x="114" y="46" width="180" height="14" rx="7" fill="#dfe9ea"/>
    <rect x="156" y="442" width="96" height="8" rx="4" fill="#dbe7e8"/>

    <text x="100" y="122" font-family="Georgia, 'Times New Roman', serif" font-style="italic" font-size="48" font-weight="700" fill="#129daf">Webey</text>

    <rect x="70" y="165" width="268" height="82" rx="24" fill="#eff7f7"/>
    <circle cx="109" cy="206" r="16" fill="#13a0b3"/>
    <text x="137" y="215" font-family="Arial, sans-serif" font-size="24" font-weight="700" fill="#1c2d38">Sac Kesimi</text>

    <rect x="70" y="271" width="268" height="82" rx="24" fill="#f6fafb" stroke="#dce8ea"/>
    <circle cx="109" cy="312" r="16" fill="#0f172a"/>
    <text x="137" y="321" font-family="Arial, sans-serif" font-size="24" font-weight="700" fill="#1c2d38">12 Nisan • 14:30</text>

    <rect x="70" y="380" width="268" height="74" rx="22" fill="#0f172a"/>
    <text x="150" y="426" text-anchor="middle" font-family="Arial, sans-serif" font-size="24" font-weight="700" fill="#ffffff">
      Randevu Al
    </text>
  </g>

  <g transform="translate(176 1000)">
    <rect width="596" height="118" rx="30" fill="#e8f7f7" stroke="#c3edef"/>
    <circle cx="58" cy="59" r="24" fill="#12a0b2"/>
    <path d="M48 58h20M58 48v20" stroke="#fff" stroke-width="5" stroke-linecap="round"/>
    <text x="100" y="49" font-family="Arial, sans-serif" font-size="25" font-weight="800" fill="#12303c">
      DAHA HIZLI, DAHA MODERN
    </text>
    <text x="100" y="84" font-family="Arial, sans-serif" font-size="24" font-weight="600" fill="#4f6470">
      Musteri deneyimine uygun dijital rezervasyon
    </text>
  </g>

  <g transform="translate(836 1081)">
    <text x="0" y="0" font-family="Arial, sans-serif" font-size="24" font-weight="700" letter-spacing="3" fill="#68808a">
      WEBEY ILE
    </text>
    <text x="0" y="68" font-family="'Arial Black', Arial, sans-serif" font-size="66" font-weight="900" fill="#121826">
      ONLINE
    </text>
    <text x="0" y="142" font-family="'Arial Black', Arial, sans-serif" font-size="66" font-weight="900" fill="#121826">
      RANDEVU
    </text>
  </g>
</svg>
